{"glyphs":{":":{"x_min":0,"x_max":195,"ha":195,"o":"m 154 396 q 154 378 142 366 q 129 354 114 354 q 73 354 73 396 q 73 443 122 443 q 154 443 154 396 z m 111 34 q 111 17 99 4 q 86 -8 71 -8 q 30 -8 30 34 q 30 81 79 81 q 111 81 111 34 z"},"$":{"x_min":0,"x_max":445,"ha":445,"o":"m 394 519 q 394 497 367 497 q 343 497 307 555 q 300 564 290 564 q 272 564 264 563 q 256 498 239 356 q 321 317 354 280 q 384 245 384 197 q 384 125 331 75 q 278 24 200 19 q 187 -93 187 -100 q 187 -115 184 -118 q 180 -122 172 -122 q 161 -122 162 -109 q 162 -105 163 -100 q 166 -74 177 18 q 114 20 70 51 q 26 82 26 123 q 26 138 34 151 q 43 163 55 163 q 67 163 77 150 q 87 137 87 120 q 87 106 81 78 q 79 70 88 65 q 129 43 180 43 q 188 104 209 288 q 205 291 197 295 q 129 333 102 370 q 77 404 77 452 q 77 506 124 543 q 171 581 244 586 l 253 672 q 254 688 255 689 q 257 698 268 698 q 278 698 279 692 q 280 688 277 670 q 275 652 267 587 q 318 587 356 567 q 394 547 394 519 z m 241 560 q 137 542 137 463 q 137 431 155 409 q 172 388 218 366 q 227 437 241 560 z m 314 170 q 314 199 297 221 q 280 244 230 275 q 221 193 203 45 q 250 53 282 88 q 314 124 314 170 z"},"?":{"x_min":0,"x_max":311,"ha":311,"o":"m 259 484 q 252 414 191 339 q 168 312 117 273 q 111 269 108 259 q 108 250 111 244 q 116 231 127 215 q 135 203 154 202 q 161 200 160 194 q 160 191 157 185 q 150 178 143 172 q 128 163 119 157 q 108 150 104 150 q 99 150 90 161 q 68 188 63 218 q 60 234 60 239 q 62 251 68 257 q 111 297 111 297 q 131 317 150 345 q 190 405 197 477 q 201 522 160 570 q 136 598 100 598 l 78 598 q 70 598 71 605 q 71 608 77 618 q 84 627 98 641 q 108 651 128 651 q 197 651 235 594 q 261 556 261 513 q 261 500 259 484 z m 152 34 q 151 17 138 5 q 125 -8 109 -8 q 94 -8 83 5 q 73 17 74 34 q 75 51 88 64 q 102 77 117 77 q 133 77 143 64 q 153 51 152 34 z"},"<":{"x_min":0,"x_max":290,"ha":290,"o":"m 273 106 q 271 102 267 94 q 261 90 257 89 q 253 89 241 98 q 227 108 139 191 q 107 221 65 258 q 52 270 52 274 q 52 279 58 285 q 50 291 50 298 q 50 306 59 314 q 85 348 138 403 q 198 465 219 490 q 228 503 234 503 q 238 501 246 497 q 250 491 251 487 q 251 484 242 471 q 233 459 160 358 q 143 335 112 295 l 106 287 l 114 281 q 141 261 187 203 q 236 142 260 121 q 273 110 273 106 z"},"'":{"x_min":0,"x_max":191,"ha":191,"o":"m 127 636 q 127 636 125 618 q 121 603 121 586 q 121 571 125 542 q 130 513 130 497 q 130 478 125 461 q 123 453 116 444 q 108 444 104 446 q 97 451 97 453 q 93 457 99 471 q 103 484 103 500 q 103 515 98 545 q 94 575 94 591 q 94 611 99 628 q 102 637 108 645 q 116 645 120 643 q 127 637 127 636 z"},"=":{"x_min":0,"x_max":351,"ha":351,"o":"m 321 346 q 316 336 308 335 q 306 334 188 329 q 71 323 62 323 q 47 323 47 323 q 41 325 47 339 q 49 346 52 348 q 54 350 60 351 q 60 351 183 356 q 303 361 308 361 q 317 361 321 360 q 325 358 321 346 z m 321 236 q 316 226 308 225 q 306 224 191 219 q 77 213 69 213 q 47 213 47 213 q 41 215 47 229 q 49 236 52 238 q 54 240 60 241 q 59 241 174 246 q 289 251 308 251 q 318 251 321 250 q 326 248 321 236 z"},"a":{"x_min":0,"x_max":435,"ha":435,"o":"m 414 58 q 416 55 412 51 q 396 34 350 14 q 304 -6 284 -6 q 275 -6 275 4 q 275 68 287 149 q 289 160 285 160 q 281 160 278 151 q 257 97 215 52 q 186 20 174 12 q 151 -6 124 -6 q 82 -6 55 38 q 29 82 29 158 q 29 281 114 374 q 182 449 274 449 q 307 449 336 441 q 347 438 351 447 q 358 466 360 481 q 361 488 368 488 l 402 488 q 405 488 406 487 q 408 486 406 482 q 386 433 376 379 q 359 289 351 220 q 338 111 338 49 q 338 41 344 41 q 366 42 402 66 q 406 68 408 66 q 412 62 414 58 z m 322 409 q 323 418 311 422 q 297 426 275 426 q 220 426 165 371 q 92 298 92 169 q 92 111 111 80 q 128 52 153 52 q 178 52 208 81 q 237 110 259 157 q 283 210 306 321 q 318 379 322 409 z"},"L":{"x_min":0,"x_max":517,"ha":517,"o":"m 503 71 q 496 37 478 5 q 474 -2 463 -2 q 447 -2 364 -1 q 281 0 229 0 l 30 0 q 25 0 26 6 q 26 11 28 21 q 28 26 32 26 l 65 26 q 90 26 92 46 l 114 245 l 145 544 q 148 575 148 599 q 147 636 136 636 l 88 636 q 81 636 82 641 q 82 643 83 650 q 83 657 83 658 q 83 662 88 662 l 303 662 q 307 662 307 658 q 306 654 306 640 q 305 636 300 636 l 231 636 q 222 636 221 629 q 201 456 189 323 q 183 258 170 146 q 166 113 166 91 q 166 29 198 29 q 379 29 466 67 q 476 71 489 80 q 498 86 501 85 q 502 85 502 84 q 505 82 503 71 z"},"3":{"x_min":0,"x_max":381,"ha":381,"o":"m 344 212 q 344 156 314 105 q 282 51 227 21 q 171 -8 96 -8 q 35 -8 5 20 q 0 24 0 30 q 0 31 3 37 q 5 41 9 41 q 13 38 21 32 q 46 19 97 19 q 168 19 223 71 q 278 124 278 195 q 278 250 248 280 q 223 305 134 326 q 122 329 124 339 q 124 346 140 351 q 182 365 226 406 q 273 449 273 514 q 273 550 256 576 q 238 603 191 603 q 132 603 90 571 q 78 562 76 562 q 70 568 70 573 q 70 575 75 583 q 107 618 145 636 q 191 658 239 658 q 281 658 310 625 q 335 594 335 558 q 335 481 274 419 q 235 380 214 365 q 201 356 216 353 q 276 342 311 305 q 344 270 344 212 z"},";":{"x_min":0,"x_max":195,"ha":195,"o":"m 146 408 q 146 391 134 378 q 122 366 106 366 q 65 366 65 408 q 65 455 114 455 q 146 455 146 408 z m 48 -135 q 33 -146 31 -146 q 25 -146 26 -137 q 27 -130 38 -119 q 75 -83 78 -39 q 80 -19 74 -6 q 71 1 58 1 q 40 1 27 13 q 13 25 15 45 q 18 75 59 75 q 85 75 103 53 q 121 30 121 -5 q 121 -81 48 -135 z"},"J":{"x_min":0,"x_max":297,"ha":297,"o":"m 286 658 q 285 654 285 640 q 284 636 279 636 l 230 636 q 221 636 220 629 q 200 456 188 323 q 173 179 156 13 q 142 -139 134 -160 q 98 -253 6 -253 q -27 -253 -51 -243 q -79 -230 -79 -209 q -79 -181 -49 -181 q -33 -181 -18 -201 q 2 -227 14 -227 q 58 -227 70 -144 q 89 -19 100 96 q 114 232 144 544 q 147 579 147 599 q 147 636 135 636 l 67 636 q 60 636 61 641 q 61 643 62 650 q 62 657 62 658 q 62 662 67 662 l 282 662 q 286 662 286 658 z"},"V":{"x_min":0,"x_max":594,"ha":594,"o":"m 622 658 q 620 652 620 641 q 618 636 616 636 l 600 636 q 592 636 585 629 q 516 504 431 352 q 368 242 246 13 q 234 -10 225 -10 q 216 -10 213 7 q 188 127 146 342 q 108 536 88 619 q 84 636 64 636 l 28 636 q 23 636 24 641 q 24 639 27 655 q 28 662 34 662 l 215 662 q 221 662 221 656 q 221 655 218 642 q 217 636 212 636 l 187 636 q 176 636 173 627 q 170 619 173 601 q 183 545 214 371 q 232 268 260 122 q 262 113 266 113 q 270 113 274 121 q 327 217 417 387 q 457 462 505 554 q 523 591 528 617 q 534 636 517 636 l 459 636 q 452 636 453 641 q 453 647 455 657 q 455 662 459 662 l 617 662 q 622 662 622 658 z"},"\"":{"x_min":0,"x_max":278,"ha":278,"o":"m 214 636 q 215 634 211 618 q 207 604 207 588 q 207 573 212 544 q 217 514 217 499 q 217 479 211 461 q 209 452 202 444 q 191 444 187 446 q 175 454 175 453 q 172 457 178 471 q 182 484 182 500 q 182 515 177 545 q 172 575 172 591 q 172 611 178 628 q 181 637 187 645 q 199 645 203 643 q 214 634 214 636 z m 140 636 q 140 636 138 618 q 134 603 134 586 q 134 571 139 542 q 144 513 144 497 q 144 478 138 461 q 135 453 129 444 q 117 444 113 446 q 102 453 102 453 q 98 457 104 471 q 108 484 108 500 q 108 515 103 545 q 99 575 99 591 q 99 611 104 628 q 107 637 113 645 q 125 645 129 643 q 140 634 140 636 z"},"7":{"x_min":0,"x_max":419,"ha":419,"o":"m 430 637 q 429 627 423 619 q 403 591 330 486 q 273 404 223 308 q 170 208 151 143 q 129 66 120 15 q 116 -10 122 -27 q 124 -33 124 -37 q 124 -43 117 -45 q 110 -45 108 -44 q 88 -35 77 -21 q 66 -8 68 10 q 71 42 87 94 q 109 167 147 242 q 210 367 281 466 q 313 507 354 562 q 362 572 363 577 q 363 583 352 580 q 301 568 183 568 q 89 568 56 585 q 51 588 52 592 q 52 596 56 602 q 63 613 79 648 q 83 656 89 656 q 92 656 111 650 q 167 632 260 632 q 337 632 401 648 q 409 650 419 650 q 432 650 430 637 z"},"S":{"x_min":0,"x_max":452,"ha":452,"o":"m 403 589 q 403 562 376 562 q 350 562 312 631 q 306 643 293 643 q 211 643 169 608 q 131 577 131 523 q 131 482 154 456 q 177 429 236 398 q 325 351 361 307 q 394 266 394 209 q 394 120 332 58 q 270 -4 181 -4 q 111 -4 62 33 q 13 71 13 121 q 13 139 22 154 q 32 169 46 169 q 59 169 69 153 q 79 137 79 116 q 79 110 72 70 q 70 59 80 53 q 121 27 178 27 q 237 27 278 72 q 320 116 320 176 q 320 216 296 245 q 271 275 195 324 q 124 370 95 414 q 68 454 68 510 q 68 579 125 624 q 183 669 270 669 q 324 669 363 645 q 403 622 403 589 z"},"}":{"x_min":0,"x_max":280,"ha":280,"o":"m 215 248 q 214 232 195 232 q 177 232 154 214 q 129 195 127 171 q 125 149 125 128 q 125 102 130 57 q 136 13 136 -15 q 136 -37 133 -61 q 125 -143 87 -194 q 44 -254 -25 -254 l -108 -254 q -117 -254 -117 -250 q -115 -242 -115 -234 q -115 -228 -106 -228 l -52 -228 q 3 -228 38 -168 q 67 -117 76 -36 q 79 -4 79 27 q 79 42 76 101 q 74 142 77 169 q 80 199 110 222 q 130 234 151 247 q 86 264 92 317 q 95 345 111 401 q 127 458 132 507 q 134 527 134 547 q 134 613 113 653 q 89 699 45 699 l -10 699 q -16 699 -16 705 q -16 713 -14 721 q -14 725 -6 725 l 77 725 q 133 725 167 676 q 198 630 198 561 q 198 546 196 532 q 190 481 169 422 q 147 363 142 315 q 140 292 161 277 q 179 264 200 264 q 216 264 215 248 z"},"Z":{"x_min":0,"x_max":551,"ha":551,"o":"m 574 680 q 574 656 541 609 q 497 545 309 341 q 305 336 294 324 q 292 321 292 320 q 293 318 298 318 q 298 318 411 318 q 415 317 415 315 q 415 304 408 294 q 404 289 396 289 q 269 289 269 289 q 263 289 260 286 q 145 157 82 67 q 76 59 78 57 q 79 55 86 57 q 112 63 228 63 q 282 63 345 61 q 408 58 417 58 q 458 58 470 70 q 484 84 484 66 q 484 31 477 4 q 474 -7 465 -9 q 449 -11 429 -11 q 419 -11 302 -5 q 205 0 117 0 q 73 0 31 -3 q 19 -4 8 -5 q -2 -7 -4 -7 q -13 -7 -12 0 q -12 3 0 21 q 19 49 175 234 q 188 250 221 284 q 227 290 218 290 l 152 290 q 145 290 145 295 q 144 302 150 312 q 153 319 162 319 l 244 319 q 250 319 253 322 q 326 403 410 498 q 432 523 459 558 q 465 569 444 570 q 410 572 324 582 q 254 590 189 590 q 85 590 85 533 q 85 504 98 498 q 107 494 107 491 q 107 482 96 482 q 82 482 74 488 q 55 502 55 528 q 55 569 89 610 q 130 660 190 660 q 217 660 327 642 q 388 632 451 632 q 499 632 514 642 q 535 656 529 706 q 527 719 531 721 q 536 724 546 719 q 574 706 574 680 z"},"x":{"x_min":0,"x_max":444,"ha":444,"o":"m 455 428 q 455 400 422 400 q 406 400 393 404 q 386 407 377 404 q 346 394 312 354 q 274 309 248 269 q 241 263 244 255 q 281 124 322 66 q 329 57 341 65 q 373 87 406 128 q 408 132 414 129 q 416 128 421 123 q 423 120 421 117 q 388 61 323 5 q 314 -3 302 -3 q 290 -3 281 9 q 234 75 200 184 q 197 196 189 184 q 159 135 92 42 q 54 -4 25 -4 q 10 -4 -15 51 q -16 54 -11 58 q -6 61 -2 59 q 8 53 22 49 q 46 42 59 51 q 88 73 119 115 q 142 146 184 215 q 188 223 186 229 q 140 363 110 395 q 106 399 100 396 q 80 387 53 361 q 50 357 46 361 l 45 362 q 45 362 42 367 q 40 369 40 371 q 40 373 42 374 q 73 412 112 443 q 125 453 141 453 q 153 453 162 440 q 197 386 229 297 q 234 285 241 295 q 277 345 291 362 q 320 399 342 419 q 383 455 417 455 q 455 455 455 428 z"},")":{"x_min":0,"x_max":311,"ha":311,"o":"m 215 260 q 197 94 102 -49 q 29 -159 -70 -243 q -81 -255 -85 -255 q -88 -255 -93 -247 q -96 -241 -96 -236 q -94 -230 -83 -220 q -34 -179 7 -121 q 110 27 134 248 q 144 333 144 391 q 144 460 125 538 q 102 635 26 709 q 17 717 17 724 q 17 728 26 735 q 32 742 35 742 q 39 742 50 733 q 118 667 155 594 q 220 469 220 339 q 220 301 215 260 z"},"&":{"x_min":0,"x_max":760,"ha":760,"o":"m 760 405 q 760 357 736 328 q 711 298 675 298 q 647 298 622 312 q 603 324 584 336 q 575 342 575 327 q 575 300 572 271 q 559 141 490 74 q 408 -6 260 -6 q 154 -6 85 58 q 21 118 21 216 q 21 306 79 381 q 136 456 205 456 q 256 456 282 421 q 286 415 292 420 q 375 492 393 543 q 401 568 396 583 q 395 588 400 590 q 406 592 416 587 q 420 585 432 570 q 441 559 429 539 q 386 466 281 383 q 226 339 86 263 q 78 259 78 229 q 78 141 144 83 q 207 29 297 29 q 389 29 458 87 q 535 152 553 272 q 556 292 556 327 q 556 352 550 357 q 502 399 454 399 q 438 399 419 377 q 401 355 401 335 q 401 333 403 328 q 411 322 425 305 q 442 277 424 268 q 418 265 412 265 q 396 265 386 282 q 376 299 376 328 q 376 361 413 402 q 455 448 505 448 q 532 448 563 430 q 587 415 611 399 q 672 360 684 360 q 713 360 730 396 q 742 423 742 450 q 742 461 744 461 q 746 463 752 465 q 757 462 758 456 q 760 447 760 405 z m 255 387 q 262 393 254 401 q 224 431 195 431 q 157 431 126 389 q 100 354 89 305 q 86 293 86 289 q 87 284 91 286 q 115 297 173 333 q 230 369 255 387 z"},"_":{"x_min":0,"x_max":376,"ha":376,"o":"m 378 -170 q 373 -178 364 -178 l 14 -178 q 5 -178 0 -170 q -6 -161 0 -150 q 5 -140 14 -140 q 235 -144 364 -140 q 373 -140 378 -150 q 384 -161 378 -170 z"},"v":{"x_min":0,"x_max":398,"ha":398,"o":"m 376 411 q 368 309 289 165 q 246 87 179 -9 q 170 -21 166 -21 q 160 -21 158 -7 q 141 110 117 209 q 84 348 51 389 q 33 412 5 403 q -2 401 -4 403 q -6 406 -4 412 q 1 425 17 437 q 33 449 49 449 q 107 449 137 366 q 183 235 202 79 q 203 71 206 71 q 208 71 213 79 q 261 154 287 213 q 313 273 319 338 q 324 388 316 412 q 314 419 317 423 q 320 428 327 427 q 349 425 367 427 q 373 428 375 424 q 376 420 376 411 z"},"O":{"x_min":0,"x_max":635,"ha":635,"o":"m 606 343 q 586 126 446 38 q 375 -6 287 -6 q 158 -6 94 54 q 25 118 25 251 q 25 277 28 305 q 48 531 188 619 q 268 669 370 669 q 609 669 609 400 q 609 373 606 343 z m 534 330 q 536 353 536 375 q 536 487 487 558 q 431 639 327 639 q 259 639 207 592 q 116 510 99 317 q 97 296 97 277 q 97 167 149 95 q 204 19 294 19 q 360 19 418 68 q 519 153 534 330 z"},"(":{"x_min":0,"x_max":311,"ha":311,"o":"m 368 728 q 367 725 355 714 q 322 686 283 637 q 240 583 219 539 q 158 411 136 224 q 129 161 129 107 q 129 -21 172 -117 q 189 -154 251 -220 q 256 -226 256 -232 q 256 -235 250 -244 q 243 -251 240 -251 q 237 -251 227 -243 q 144 -169 95 -55 q 52 45 52 161 q 52 196 56 234 q 77 424 198 587 q 269 682 340 737 q 349 746 357 746 q 361 746 365 739 q 368 731 368 728 z"},"C":{"x_min":0,"x_max":584,"ha":584,"o":"m 568 561 q 567 550 562 550 q 559 550 553 559 q 536 584 514 602 q 471 637 387 637 q 281 637 206 563 q 103 462 103 278 q 103 153 167 92 q 235 27 313 27 q 364 27 412 43 q 454 57 475 77 q 486 87 509 147 q 512 152 520 152 q 529 152 521 103 q 517 81 514 66 q 513 62 505 56 q 469 31 411 12 q 349 -8 299 -8 q 178 -8 109 58 q 28 136 28 266 q 28 360 69 447 q 109 532 179 592 q 217 625 275 647 q 337 670 392 670 q 511 670 561 636 q 567 632 567 626 q 569 573 568 561 z"},"W":{"x_min":0,"x_max":784,"ha":784,"o":"m 826 658 q 824 652 824 641 q 822 636 820 636 l 804 636 q 795 636 789 629 q 720 504 635 352 q 564 218 456 13 q 444 -10 435 -10 q 426 -10 423 7 q 390 180 369 281 q 366 293 360 282 l 214 13 q 202 -10 193 -10 q 184 -10 181 7 q 157 127 114 342 q 81 515 55 619 q 51 636 31 636 l 20 636 q 15 636 16 641 q 16 639 19 655 q 21 662 26 662 l 182 662 q 188 662 188 656 q 188 655 185 642 q 184 636 179 636 l 154 636 q 143 636 140 627 q 137 619 140 601 q 156 516 182 371 q 200 268 228 122 q 230 113 234 113 q 238 113 242 121 q 276 184 354 327 q 358 335 357 342 q 317 545 299 619 q 295 636 275 636 l 253 636 q 248 636 249 641 q 249 639 252 655 q 253 662 259 662 l 428 662 q 434 662 434 656 q 434 655 431 642 q 430 636 425 636 l 398 636 q 387 636 384 627 q 381 619 384 601 q 394 545 425 371 l 470 122 q 472 113 476 113 q 480 113 484 121 q 534 217 621 387 l 707 551 q 728 594 732 617 q 736 636 721 636 l 663 636 q 656 636 657 641 q 657 647 659 657 q 659 662 663 662 l 821 662 q 826 662 826 658 z"},"A":{"x_min":0,"x_max":612,"ha":612,"o":"m 566 19 q 566 13 564 5 q 564 0 559 0 l 382 0 q 379 0 380 6 q 380 8 380 13 q 381 18 381 19 q 382 26 387 26 l 427 26 q 443 26 440 56 q 439 64 425 142 q 411 220 409 229 q 407 239 400 239 l 177 239 q 174 238 171 233 q 145 187 114 105 q 100 67 97 46 q 94 26 103 26 l 152 26 q 157 26 156 19 q 155 14 154 5 q 154 0 150 0 l -14 0 q -19 0 -19 5 q -17 13 -17 21 q -16 26 -13 26 l 16 26 q 29 26 47 56 q 117 193 191 337 q 261 475 337 624 q 347 645 361 672 q 370 687 377 689 q 389 693 411 700 q 415 701 417 701 q 421 699 424 689 q 423 687 420 683 q 418 681 408 669 q 397 657 397 648 q 396 633 399 615 q 416 519 462 305 q 482 209 511 82 q 526 26 545 26 l 563 26 q 567 26 566 19 z m 396 283 q 388 327 371 412 q 363 450 345 561 q 344 569 342 569 q 339 569 336 561 q 304 499 268 427 q 265 420 232 354 q 199 288 197 285 q 194 281 194 279 q 194 276 198 276 l 393 276 q 396 276 396 283 z"},"f":{"x_min":0,"x_max":247,"ha":247,"o":"m 346 721 q 346 695 311 695 q 288 695 264 723 q 261 727 255 727 q 240 727 228 715 q 193 680 182 586 q 180 560 168 454 q 167 444 173 444 q 183 444 262 445 q 265 444 266 440 q 266 430 263 418 q 263 412 258 412 q 255 412 215 413 q 174 414 172 414 q 164 414 163 407 q 163 407 120 52 q 105 -64 93 -106 q 68 -186 25 -222 q -12 -254 -57 -254 q -106 -254 -106 -222 q -106 -201 -80 -201 q -67 -201 -43 -225 q -40 -229 -33 -229 q -12 -229 0 -211 q 18 -183 33 -115 q 43 -64 58 50 l 100 401 q 102 413 96 413 q 90 413 60 412 q 57 412 56 413 q 55 414 55 419 q 56 423 58 436 q 58 444 65 444 q 67 444 81 444 q 95 445 101 445 q 106 445 106 452 q 112 500 119 562 q 133 669 196 726 q 237 763 289 763 q 315 763 331 750 q 346 738 346 721 z"},"Q":{"x_min":0,"x_max":616,"ha":616,"o":"m 627 -160 q 627 -171 614 -184 q 575 -223 498 -223 q 421 -223 347 -185 q 261 -141 173 -40 q 116 25 91 41 q 70 54 51 54 q 48 54 40 52 q 32 51 28 51 q 25 51 24 52 q 23 53 23 57 q 23 65 37 74 q 51 83 71 83 q 128 83 199 22 q 204 18 211 19 q 340 47 405 113 q 459 168 482 229 q 505 290 505 378 q 505 483 454 558 q 399 639 301 639 q 217 639 161 579 q 105 519 105 424 q 105 356 137 318 q 168 280 223 280 q 275 280 306 307 q 336 333 336 374 q 336 400 322 413 q 310 424 289 424 q 283 424 283 428 q 283 439 304 439 q 324 439 340 427 q 364 409 364 371 q 364 313 327 277 q 284 235 200 235 q 133 235 92 282 q 51 330 51 408 q 51 516 134 593 q 218 669 332 669 q 444 669 513 587 q 576 512 576 406 q 576 193 428 82 q 353 26 230 3 q 217 0 226 -9 q 278 -67 336 -105 q 438 -172 535 -172 q 575 -172 597 -165 q 625 -156 622 -156 q 627 -156 627 -160 z"},"w":{"x_min":0,"x_max":585,"ha":585,"o":"m 563 398 q 557 348 542 307 q 526 260 480 167 q 434 75 383 -2 q 375 -14 370 -14 q 364 -14 362 0 q 349 94 323 252 q 321 264 316 286 q 312 298 309 285 q 292 221 267 173 q 229 99 151 -9 q 143 -21 138 -21 q 132 -21 130 -7 q 123 103 105 209 q 82 349 50 389 q 37 405 19 405 q 12 405 7 403 q 1 401 -1 403 q -2 406 -1 412 q 4 425 21 437 q 37 449 51 449 q 112 449 135 366 q 171 235 180 86 q 181 78 183 78 q 186 78 191 86 q 244 175 262 222 q 290 293 301 351 q 306 375 313 411 q 316 432 330 432 q 339 432 343 418 q 357 372 378 263 q 397 160 406 90 q 407 82 410 82 q 413 82 417 90 q 458 167 476 214 q 503 288 507 339 q 510 386 504 411 q 502 418 505 423 q 507 428 513 427 q 537 424 557 427 q 562 428 563 421 q 565 415 563 398 z"},"-":{"x_min":0,"x_max":304,"ha":304,"o":"m 263 313 q 263 301 256 298 q 254 297 156 251 q 58 205 51 202 q 40 197 39 197 q 33 197 33 212 q 33 224 41 228 q 48 232 143 275 q 243 321 248 322 q 256 326 258 326 q 263 326 263 313 z"},"E":{"x_min":0,"x_max":551,"ha":551,"o":"m 523 652 q 517 630 507 590 q 505 583 502 583 q 498 583 495 586 q 492 589 481 597 q 461 611 420 619 q 370 628 233 630 q 226 630 224 624 q 209 511 192 384 q 190 374 199 374 l 406 374 q 416 374 421 385 q 432 409 437 427 q 439 436 444 436 l 453 436 q 459 436 458 428 q 454 404 446 353 q 443 319 438 269 q 436 258 432 258 l 422 258 q 417 258 417 265 q 417 298 413 325 q 412 335 398 335 q 394 335 295 337 q 197 339 194 339 q 187 339 186 330 q 186 331 164 146 q 160 113 160 91 q 160 29 192 29 q 369 29 454 66 q 462 70 478 76 q 480 77 485 76 q 490 75 489 71 q 479 39 463 7 q 459 0 448 0 l 24 0 q 19 0 20 6 q 20 11 22 21 q 22 26 26 26 l 59 26 q 84 26 86 46 q 102 187 118 337 q 129 432 142 537 q 154 636 135 636 l 73 636 q 68 636 69 641 q 69 647 71 657 q 71 662 77 662 l 509 663 q 525 663 523 652 z"},"s":{"x_min":0,"x_max":322,"ha":322,"o":"m 283 407 q 283 397 274 388 q 265 379 255 379 q 229 379 208 419 q 204 427 194 427 q 165 427 144 408 q 122 390 122 363 q 122 316 159 284 q 192 255 220 232 q 280 182 280 111 q 280 58 238 25 q 199 -6 142 -6 q 88 -6 54 15 q 23 35 23 61 q 23 91 54 91 q 78 91 103 28 q 106 21 114 19 q 121 17 137 17 q 172 17 197 40 q 221 62 221 92 q 221 143 180 177 q 160 194 123 225 q 67 271 67 332 q 67 384 104 417 q 141 451 195 451 q 283 451 283 407 z"},">":{"x_min":0,"x_max":290,"ha":290,"o":"m 242 298 q 242 293 234 285 q 240 279 240 274 q 240 269 227 258 q 162 195 51 98 q 35 89 35 89 q 30 89 24 94 q 19 100 19 106 q 19 112 32 121 q 54 139 106 204 q 156 265 178 281 l 186 287 l 180 295 q 132 360 50 471 q 41 483 41 487 q 41 492 46 498 q 52 503 58 503 q 64 503 73 490 q 137 422 233 314 q 242 306 242 298 z"},"l":{"x_min":0,"x_max":239,"ha":239,"o":"m 208 51 q 210 46 207 45 q 183 27 134 10 q 89 -6 71 -6 q 60 -6 60 8 q 60 41 71 145 q 83 254 104 437 q 114 523 120 589 q 128 671 128 691 q 128 699 120 699 q 103 699 54 685 q 50 684 47 689 q 46 691 44 699 q 42 704 48 706 q 155 744 198 744 q 210 744 208 733 q 192 635 172 471 q 147 270 137 163 q 126 48 126 47 q 126 37 135 37 q 160 37 197 60 q 201 62 203 60 q 205 58 208 51 z"},"8":{"x_min":0,"x_max":423,"ha":423,"o":"m 383 520 q 383 464 343 416 q 315 382 271 366 q 259 362 271 355 q 365 304 365 192 q 365 99 293 37 q 240 -9 163 -9 q 103 -9 66 30 q 26 72 26 137 q 26 210 72 273 q 93 303 132 332 q 137 334 130 340 q 65 388 65 467 q 65 509 86 551 q 106 590 136 615 q 188 659 251 659 q 312 659 348 620 q 383 582 383 520 z m 332 507 q 332 557 312 584 q 284 622 230 622 q 176 622 149 598 q 112 565 112 508 q 112 433 158 403 q 188 383 226 372 q 229 371 233 371 q 261 371 298 413 q 332 452 332 507 z m 316 152 q 316 213 291 248 q 265 282 167 322 q 160 325 154 322 q 115 304 91 251 q 73 212 73 174 q 73 109 101 67 q 134 20 196 20 q 243 20 276 50 q 316 86 316 152 z"},"\\":{"x_min":0,"x_max":275,"ha":275,"o":"m 221 -39 q 221 -41 212 -46 q 208 -48 201 -48 q 197 -44 194 -31 q 185 11 121 334 q 57 657 50 698 q 46 712 49 716 q 53 721 58 723 q 64 727 69 725 q 74 722 76 708 q 85 670 149 341 q 212 25 220 -21 q 225 -33 221 -39 z"},"e":{"x_min":0,"x_max":342,"ha":342,"o":"m 345 406 q 345 399 331 388 q 240 312 99 240 q 91 237 89 228 q 86 214 86 184 q 86 120 116 85 q 142 55 181 55 q 243 55 305 110 q 309 113 312 111 q 313 110 318 104 q 320 100 318 97 q 299 70 262 45 q 188 -6 126 -6 q 83 -6 55 42 q 23 95 23 185 q 23 306 114 395 q 175 455 224 455 q 294 455 301 405 q 302 397 310 397 q 312 397 323 408 q 334 420 337 419 q 345 416 345 406 z m 242 359 q 243 379 229 394 q 215 409 196 409 q 160 409 136 385 q 108 357 96 271 q 95 265 97 264 q 99 263 103 265 q 180 302 239 347 q 241 349 242 359 z"},"b":{"x_min":0,"x_max":427,"ha":427,"o":"m 388 291 q 388 169 301 74 q 229 -5 138 -5 q 103 -5 74 11 q 67 15 63 9 q 48 -11 38 -38 q 36 -43 30 -43 l 21 -43 q 15 -43 16 -37 q 28 7 45 116 q 75 305 91 436 q 97 485 107 588 q 115 670 115 691 q 115 699 107 699 q 92 699 41 685 q 36 684 34 690 q 32 696 31 698 q 30 704 35 706 q 98 730 185 744 q 189 745 193 741 q 196 737 195 732 q 195 731 158 470 q 147 399 131 293 q 129 283 132 283 q 134 283 138 292 q 161 350 198 390 q 258 455 302 455 q 388 455 388 291 z m 321 280 q 321 390 259 390 q 234 390 207 363 q 179 335 158 290 q 123 212 109 128 q 102 83 100 34 q 100 27 107 25 q 121 21 137 21 q 194 21 250 77 q 321 148 321 280 z"},"%":{"x_min":0,"x_max":631,"ha":631,"o":"m 599 199 q 592 77 534 26 q 504 0 470 0 q 415 0 389 33 q 361 69 361 147 q 361 162 362 178 q 370 305 428 356 q 461 385 503 385 q 549 385 575 347 q 600 310 600 233 q 600 217 599 199 z m 562 191 q 567 271 546 313 q 524 357 485 357 q 460 357 438 331 q 407 294 399 185 q 394 106 417 65 q 439 26 473 26 q 502 26 524 47 q 555 77 562 191 z m 268 475 q 261 353 203 302 q 173 276 139 276 q 83 276 58 309 q 30 345 30 423 q 30 438 31 454 q 39 581 97 632 q 130 661 172 661 q 218 661 244 624 q 269 586 269 509 q 269 493 268 475 z m 231 467 q 236 547 215 589 q 193 633 154 633 q 129 633 107 607 q 76 570 68 461 q 62 382 86 341 q 108 302 144 302 q 171 302 193 323 q 224 353 231 467 z m 472 674 q 473 672 467 656 q 450 612 319 292 q 187 -32 169 -73 q 165 -83 158 -90 q 151 -90 146 -88 q 140 -82 140 -81 q 138 -78 144 -63 q 282 273 443 666 q 447 676 454 683 q 461 683 466 681 q 472 675 472 674 z"},"m":{"x_min":0,"x_max":644,"ha":644,"o":"m 627 52 q 629 47 626 46 q 603 25 559 9 q 517 -6 489 -6 q 479 -6 480 8 q 485 66 499 145 q 521 270 521 343 q 521 388 492 388 q 446 388 398 306 q 360 242 342 163 q 332 118 318 10 q 317 0 309 0 l 261 0 q 253 0 255 9 q 267 70 289 211 q 301 299 301 343 q 301 388 272 388 q 226 388 178 306 q 140 242 122 163 q 111 118 98 10 q 97 0 89 0 l 41 0 q 34 0 35 9 q 46 70 69 211 q 84 319 86 384 q 86 391 80 391 q 68 391 31 361 q 23 355 21 357 q 18 360 15 364 q 13 368 16 371 q 60 415 109 440 q 136 454 146 454 q 151 454 151 440 q 151 432 149 412 q 145 369 135 284 q 134 274 134 271 q 134 269 136 272 q 138 275 142 283 q 171 349 214 399 q 263 455 307 455 q 361 455 361 358 q 361 319 356 286 q 354 272 355 272 q 358 274 363 286 q 392 351 434 399 q 483 455 527 455 q 583 455 583 358 q 583 309 560 162 q 549 92 549 44 q 549 31 558 33 q 589 41 616 59 q 621 62 623 58 q 624 57 627 52 z"},"#":{"x_min":0,"x_max":562,"ha":562,"o":"m 538 152 q 540 146 536 139 q 534 136 529 131 q 525 126 511 134 q 483 143 345 190 q 312 89 272 -31 q 268 -43 262 -48 q 257 -50 249 -46 q 246 -44 241 -39 q 238 -36 244 -21 q 262 34 315 201 q 265 219 163 254 l 66 -31 q 63 -40 56 -48 q 48 -50 43 -46 q 36 -42 35 -39 q 30 -34 38 -21 q 62 52 133 265 q 91 280 34 300 q 24 303 17 310 q 14 316 19 323 q 21 326 26 331 q 28 333 44 328 q 69 319 142 295 q 159 344 192 443 l 34 496 q 18 500 18 509 q 18 515 20 522 q 21 529 29 529 q 35 529 44 524 q 86 511 202 473 l 282 708 q 287 720 292 725 q 299 727 305 723 q 308 721 313 716 q 315 714 310 698 q 301 667 232 463 q 309 439 382 414 l 478 708 q 481 719 488 725 q 494 726 501 723 q 504 721 509 716 q 511 714 506 698 q 482 623 413 405 q 459 390 521 368 q 529 367 538 358 q 541 352 536 345 q 534 342 529 337 q 525 332 511 340 q 510 340 404 375 q 385 317 354 220 q 444 190 521 162 q 532 158 538 152 z m 373 384 q 323 400 222 433 q 206 384 172 284 q 224 267 324 231 q 342 291 373 384 z"},",":{"x_min":0,"x_max":174,"ha":174,"o":"m 44 -136 q 29 -147 27 -147 q 21 -147 22 -138 q 23 -131 34 -120 q 70 -83 74 -40 q 76 -20 70 -7 q 67 0 54 0 q 36 0 23 12 q 9 24 11 44 q 14 74 55 74 q 81 74 99 52 q 117 29 117 -6 q 117 -82 44 -136 z"},"n":{"x_min":0,"x_max":427,"ha":427,"o":"m 413 52 q 415 47 412 46 q 389 25 347 9 q 307 -6 277 -6 q 267 -6 267 6 q 267 33 285 145 q 305 270 305 323 q 305 398 276 398 q 240 398 184 306 q 148 247 126 159 q 104 75 92 10 q 90 0 81 0 l 49 0 q 40 0 41 9 q 52 70 75 211 q 91 326 91 384 q 91 394 85 391 q 60 380 33 358 q 29 355 26 358 q 24 359 20 364 q 18 367 21 370 q 39 389 78 416 q 115 442 134 450 q 144 454 152 454 q 158 454 157 436 q 148 331 140 280 q 139 271 139 267 q 139 263 141 265 q 143 267 147 275 q 183 352 224 397 q 276 455 313 455 q 369 455 369 358 q 369 309 346 162 q 335 92 335 44 q 335 32 344 34 q 380 42 403 59 q 406 62 409 58 q 410 57 413 52 z"},"h":{"x_min":0,"x_max":417,"ha":417,"o":"m 405 51 q 406 48 404 47 q 380 26 339 10 q 298 -6 269 -6 q 258 -6 258 13 q 258 43 276 145 q 298 270 298 343 q 298 388 269 388 q 223 388 175 306 q 135 238 119 165 q 108 117 97 10 q 96 0 88 0 l 41 0 q 33 0 34 9 q 42 71 63 213 q 83 353 117 589 q 125 645 125 691 q 125 699 117 699 q 103 699 55 686 q 51 685 48 690 q 47 693 45 699 q 43 705 49 707 q 69 715 122 729 q 180 745 195 745 q 207 745 205 733 q 189 640 161 471 l 131 281 q 130 274 130 271 q 131 269 133 271 q 135 273 138 281 q 168 350 211 399 q 260 455 304 455 q 360 455 360 358 q 360 309 337 162 q 326 92 326 44 q 326 34 333 34 q 359 34 395 60 q 397 62 399 60 q 401 57 405 51 z"},"z":{"x_min":0,"x_max":380,"ha":380,"o":"m 450 -67 q 418 -111 376 -111 q 316 -111 209 -34 q 134 20 77 33 q 60 37 46 31 q 37 27 25 13 q 12 -3 5 -8 q -1 -13 -6 -8 q -9 -5 -16 3 q -19 9 -15 13 q 87 99 185 203 q 232 253 303 339 q 312 348 302 350 q 277 357 209 383 q 158 402 116 402 q 59 402 59 373 q 59 364 63 360 q 89 334 89 318 q 89 292 68 292 q 35 292 35 360 q 35 394 69 424 q 104 455 144 455 q 198 455 241 438 q 266 428 313 409 q 336 401 348 410 q 366 424 374 432 q 378 436 382 434 q 386 432 390 428 q 393 424 391 420 q 351 355 248 238 q 172 152 107 88 q 98 79 109 78 q 177 72 261 13 q 369 -63 411 -63 q 429 -63 439 -56 q 441 -55 443 -55 q 445 -55 446 -56 q 447 -57 448 -58 q 449 -59 450 -60 q 454 -63 450 -67 z"},"B":{"x_min":0,"x_max":514,"ha":514,"o":"m 490 534 q 490 481 451 431 q 416 383 360 354 q 354 351 361 348 q 401 331 428 300 q 470 251 470 186 q 470 116 407 59 q 337 -6 233 -6 q 225 -6 145 -3 q 65 0 24 0 q 19 0 20 6 q 20 11 22 21 q 22 26 26 26 l 59 26 q 84 26 86 46 q 102 187 118 337 q 129 433 142 539 q 144 553 145 571 q 146 599 145 616 q 143 638 135 638 l 73 636 q 70 637 69 641 q 69 647 71 657 q 71 662 77 662 q 99 662 128 663 q 157 664 174 664 q 192 664 250 666 q 308 668 325 668 q 386 668 427 646 q 490 612 490 534 z m 420 513 q 420 574 375 607 q 338 635 291 635 q 250 635 233 633 q 226 632 224 627 q 208 508 191 376 q 190 370 192 367 q 194 365 199 365 q 259 367 317 358 q 320 357 324 359 q 420 399 420 513 z m 393 187 q 393 248 352 292 q 307 341 234 341 q 214 341 194 340 q 187 340 186 331 q 185 324 164 146 q 157 85 157 62 q 157 26 178 26 q 284 26 335 61 q 393 101 393 187 z"},"K":{"x_min":0,"x_max":660,"ha":660,"o":"m 682 655 l 681 642 q 681 636 674 636 l 643 636 q 629 636 598 613 q 494 535 305 398 q 292 389 292 379 q 292 374 297 369 q 334 334 378 281 q 418 231 499 122 q 537 70 555 70 q 574 70 589 86 q 600 98 616 120 q 618 125 624 121 l 631 117 q 636 114 634 109 q 613 65 589 37 q 553 -5 529 -5 q 506 -5 487 23 q 402 146 325 244 q 275 309 235 342 q 227 349 213 343 l 191 334 q 182 330 180 317 q 164 179 159 135 q 148 26 167 26 l 226 26 q 230 26 230 20 l 229 5 q 229 0 224 0 l 21 0 q 16 0 16 5 l 17 20 q 18 26 24 26 l 62 26 q 74 26 77 31 q 80 36 83 62 q 97 185 114 333 q 125 428 137 537 q 142 571 142 601 q 142 636 133 636 l 72 636 q 66 636 67 641 l 69 657 q 70 662 75 662 l 294 662 q 300 662 299 655 l 298 641 q 298 636 291 636 l 235 636 q 220 636 218 623 q 195 439 187 379 q 186 369 188 365 q 190 363 196 365 q 224 375 273 408 q 384 483 466 547 q 529 596 529 626 q 529 636 510 636 l 475 636 q 470 636 471 642 l 473 657 q 475 662 480 662 l 677 662 q 683 662 682 655 z"},"R":{"x_min":0,"x_max":580,"ha":580,"o":"m 571 21 q 570 16 569 6 q 569 0 565 0 l 449 0 q 442 0 437 6 q 404 43 336 155 q 290 230 267 278 q 263 286 260 286 q 235 286 179 292 q 171 293 171 287 q 168 257 154 133 q 150 100 150 76 q 150 26 164 26 l 248 26 q 253 26 252 21 q 252 13 250 5 q 250 0 246 0 l 23 0 q 18 0 17 5 q 18 9 19 20 q 19 26 25 26 l 66 26 q 73 26 75 41 q 89 163 105 302 q 110 347 128 504 q 135 568 135 602 q 135 636 127 636 l 65 636 q 60 636 60 640 q 62 648 62 658 q 63 662 67 662 l 203 662 q 209 662 259 664 q 308 666 314 666 q 350 666 376 661 q 423 652 463 610 q 497 574 497 514 q 497 421 441 368 q 388 317 341 302 q 336 299 337 296 q 355 245 411 164 q 470 78 507 48 q 536 25 563 25 q 571 25 571 21 z m 421 472 q 422 481 422 491 q 422 540 393 576 q 347 633 230 633 q 214 633 211 626 q 211 600 190 453 q 175 348 175 323 q 175 317 182 316 q 198 313 243 313 q 290 313 315 325 q 358 346 389 390 q 416 431 421 472 z"},"T":{"x_min":0,"x_max":533,"ha":533,"o":"m 558 657 q 550 628 539 588 q 538 581 534 581 q 533 581 525 589 q 508 606 473 617 q 436 628 351 628 q 343 628 342 621 q 316 397 289 165 q 280 92 280 63 q 280 26 291 26 l 366 26 q 369 26 368 22 q 368 20 368 13 q 367 7 367 5 q 367 0 363 0 l 124 0 q 120 0 120 5 q 121 2 121 21 q 122 26 127 26 l 195 25 q 203 25 205 36 q 210 85 217 151 q 253 449 256 479 q 264 561 264 588 q 264 628 244 628 q 150 628 95 614 q 63 606 45 591 q 36 582 33 582 q 27 582 27 586 q 27 592 30 599 q 39 619 54 666 q 57 672 66 671 q 138 660 318 660 q 489 660 517 661 q 530 662 542 663 q 553 665 553 665 q 560 665 558 657 z"},"P":{"x_min":0,"x_max":528,"ha":528,"o":"m 432 353 q 380 308 290 308 q 254 308 235 314 q 231 315 231 320 q 231 323 233 327 q 234 330 241 330 q 251 329 275 329 q 338 329 374 362 q 418 402 425 463 q 426 475 426 487 q 426 548 396 583 q 353 633 265 633 q 237 633 233 632 q 229 631 227 622 q 217 579 205 472 q 193 363 182 295 q 181 288 163 136 q 150 25 169 25 l 257 25 q 263 25 262 19 q 261 10 261 6 q 260 0 257 0 l -1 0 q -5 0 -4 4 q -4 5 -3 11 q -3 17 -3 19 q -2 25 3 25 l 70 25 q 77 25 80 37 q 113 299 118 348 q 131 473 142 545 q 148 590 148 611 q 148 636 141 636 l 74 636 q 68 636 68 640 q 68 642 69 648 q 70 655 70 657 q 71 662 77 662 l 194 662 q 202 662 259 664 q 315 665 318 665 q 363 665 387 658 q 436 644 468 604 q 500 564 500 501 q 500 413 432 353 z"},"|":{"x_min":0,"x_max":307,"ha":307,"o":"m 179 -148 q 179 -157 171 -162 q 162 -168 151 -162 q 141 -157 141 -148 q 143 -41 143 294 q 144 658 141 752 q 141 760 151 766 q 162 772 171 766 q 179 761 179 752 z"},"t":{"x_min":0,"x_max":296,"ha":296,"o":"m 292 434 q 290 431 284 421 q 280 413 269 413 l 172 413 q 166 413 165 408 q 148 310 123 141 q 121 123 121 96 q 121 66 127 56 q 137 40 152 40 q 182 40 230 80 q 236 86 243 91 q 245 93 248 90 q 253 85 255 81 q 256 80 256 79 q 256 68 208 34 q 149 -8 95 -8 q 80 -8 71 2 q 57 18 57 57 q 57 103 63 145 q 77 241 106 407 q 107 413 102 413 l 56 413 q 46 413 47 419 q 48 425 51 437 q 53 443 59 443 l 105 443 q 112 443 113 446 q 114 451 124 504 q 127 519 141 523 q 153 526 180 531 q 185 532 188 529 q 190 526 189 522 q 179 492 175 455 q 174 443 178 443 q 184 443 233 443 q 282 444 287 444 q 295 444 292 434 z"},"M":{"x_min":0,"x_max":761,"ha":761,"o":"m 742 641 q 740 636 738 636 l 693 636 q 678 636 675 611 q 666 519 658 360 q 651 251 643 124 q 638 26 655 26 l 713 26 q 717 26 716 21 q 716 20 715 13 q 715 7 715 5 q 714 0 710 0 l 511 0 q 504 0 504 5 q 504 7 504 13 q 505 20 505 21 q 506 26 511 26 l 555 26 q 565 26 567 38 q 575 152 585 288 q 595 408 601 504 q 602 518 598 518 q 594 518 590 509 q 492 294 397 104 q 374 56 344 -6 q 339 -14 336 -14 q 329 -14 327 -7 q 285 128 241 273 q 231 322 173 509 q 170 518 167 518 q 163 518 161 507 q 139 397 120 222 q 119 213 107 112 q 97 26 121 26 l 191 26 q 196 26 195 22 q 195 20 194 14 q 194 8 194 5 q 193 0 190 0 l 13 0 q 7 0 7 4 q 7 9 9 19 q 10 26 15 26 l 54 26 q 66 26 69 48 q 76 113 105 327 q 115 387 135 534 q 136 543 136 551 q 136 607 96 628 q 89 632 33 636 q 29 636 29 640 q 31 646 31 658 q 32 662 36 662 l 185 662 q 193 662 196 655 q 230 557 260 456 q 330 221 360 113 q 365 95 373 112 q 424 222 484 348 q 550 492 625 653 q 630 662 640 662 l 738 662 q 743 662 742 658 q 742 658 742 641 z"},"g":{"x_min":0,"x_max":382,"ha":382,"o":"m 390 438 q 390 402 383 381 q 382 378 381 375 q 380 373 372 371 q 354 370 336 369 q 309 367 310 357 q 313 339 313 313 q 313 283 299 246 q 284 209 265 191 q 219 148 167 144 q 150 143 141 136 q 123 122 123 98 q 122 75 150 54 q 163 44 208 27 q 299 -7 326 -33 q 353 -59 352 -96 q 352 -148 284 -202 q 218 -253 112 -253 q 39 -253 -8 -220 q -51 -189 -51 -140 q -50 -93 10 -53 q 50 -25 105 -7 q 112 -5 106 0 q 73 24 74 71 q 74 110 119 141 q 124 144 115 147 q 88 155 63 185 q 39 215 39 271 q 40 349 96 404 q 146 453 208 453 q 245 453 266 441 q 281 430 293 415 q 297 411 308 411 q 353 411 364 420 q 373 428 380 441 q 381 444 386 443 q 390 442 390 438 z m 255 299 q 256 347 245 377 q 229 422 184 422 q 152 422 129 399 q 101 371 99 293 q 98 229 110 202 q 126 167 161 167 q 201 167 225 195 q 253 228 255 299 z m 292 -113 q 291 -68 232 -43 q 185 -22 143 -22 q 87 -22 47 -56 q 3 -94 2 -131 q 1 -170 33 -196 q 69 -225 139 -225 q 206 -225 246 -192 q 293 -153 292 -113 z"},"j":{"x_min":0,"x_max":215,"ha":215,"o":"m 202 598 q 202 578 184 561 q 167 547 153 547 q 125 547 125 575 q 125 590 138 606 q 154 625 177 625 q 202 625 202 598 z m 172 448 q 172 407 158 298 l 136 128 q 126 35 105 -102 q 87 -167 39 -208 q 2 -240 -44 -240 q -65 -240 -79 -229 q -91 -220 -91 -208 q -91 -188 -63 -188 q -44 -188 -28 -210 q -25 -214 -20 -214 q -1 -214 13 -194 q 39 -159 49 -102 q 54 -77 72 71 l 88 203 q 108 374 108 391 q 108 397 102 394 q 70 377 39 352 q 35 349 32 352 q 29 354 25 359 q 23 362 26 365 q 64 403 106 428 q 152 455 165 455 q 172 455 172 448 z"},"i":{"x_min":0,"x_max":252,"ha":252,"o":"m 199 589 q 199 541 157 541 q 126 541 126 582 q 126 602 138 615 q 150 628 167 628 q 199 628 199 589 z m 225 50 q 226 46 224 45 q 198 26 153 10 q 107 -6 79 -6 q 69 -6 69 5 q 69 49 85 166 q 111 356 111 386 q 111 396 105 393 q 69 373 43 352 q 39 349 36 352 q 34 354 29 359 q 27 362 30 365 q 68 403 110 428 q 156 455 169 455 q 176 455 176 448 q 176 416 162 298 q 155 250 143 161 q 133 82 133 47 q 133 37 142 37 q 176 37 215 61 q 219 63 221 60 q 224 57 225 50 z"},"y":{"x_min":0,"x_max":410,"ha":410,"o":"m 379 416 q 375 330 303 176 q 229 20 146 -101 q 63 -221 -20 -221 q -61 -221 -61 -191 q -61 -162 -26 -162 q -17 -162 29 -173 q 35 -174 41 -170 q 75 -149 124 -86 q 167 -30 191 18 q 194 24 192 36 q 180 108 145 224 q 108 346 68 395 q 63 400 56 396 q 48 391 14 360 q 11 357 9 360 l 8 361 q 7 362 3 367 q 0 371 2 373 q 35 413 68 439 q 87 454 101 454 q 109 454 120 439 q 167 376 188 292 q 201 243 233 101 q 235 88 242 101 q 292 198 309 258 q 322 304 323 366 q 323 396 318 418 q 316 424 319 427 q 322 431 329 430 q 352 428 370 430 q 375 431 377 427 q 379 423 379 416 z"},"@":{"x_min":0,"x_max":658,"ha":658,"o":"m 638 379 q 625 275 561 217 q 506 168 436 168 q 372 168 365 243 q 364 256 368 290 q 369 294 368 297 q 367 299 365 298 q 363 297 362 292 q 342 245 320 221 q 282 180 252 180 q 221 180 202 212 q 183 244 183 298 q 183 384 245 452 q 292 504 359 504 q 383 504 403 498 q 411 496 414 503 q 417 512 420 527 q 421 533 426 533 l 452 533 q 457 533 455 529 q 440 496 433 456 q 412 342 402 261 q 401 252 401 244 q 401 195 441 195 q 497 195 538 239 q 583 287 594 374 q 597 400 597 424 q 597 529 539 591 q 478 655 368 655 q 281 655 200 576 q 108 486 87 346 q 82 313 82 282 q 82 174 136 108 q 194 35 301 35 q 360 35 448 86 q 453 89 455 85 q 458 85 463 76 q 464 73 455 64 q 381 11 290 11 q 167 11 95 92 q 27 169 27 293 q 27 320 31 348 q 50 495 157 591 q 255 679 371 679 q 498 679 571 605 q 641 535 641 423 q 641 401 638 379 z m 389 472 q 390 476 381 482 q 363 485 358 485 q 321 485 284 447 q 235 397 235 309 q 235 228 275 228 q 313 228 346 300 q 359 329 377 413 q 382 436 389 472 z"},".":{"x_min":0,"x_max":154,"ha":154,"o":"m 95 35 q 95 18 83 5 q 70 -7 55 -7 q 14 -7 14 35 q 14 82 63 82 q 95 82 95 35 z"},"p":{"x_min":0,"x_max":403,"ha":403,"o":"m 373 315 q 373 214 333 133 q 283 33 197 9 q 156 -2 95 10 q 85 12 84 3 q 75 -56 70 -110 q 66 -149 66 -178 q 66 -229 79 -229 l 167 -229 q 171 -229 170 -232 q 170 -239 168 -249 q 168 -254 164 -254 l -51 -254 q -56 -254 -56 -250 q -56 -250 -55 -243 q -54 -236 -54 -233 q -53 -229 -47 -229 l -14 -229 q -6 -229 -5 -221 q 30 -1 64 322 q 76 437 76 514 q 76 529 89 532 q 124 541 135 541 q 143 541 143 532 q 144 497 139 437 q 137 397 126 317 q 125 310 125 307 q 125 305 127 307 q 129 309 132 315 q 165 382 220 426 q 256 455 290 455 q 328 455 353 412 q 373 378 373 315 z m 308 302 q 308 339 293 366 q 279 393 257 393 q 221 393 192 366 q 148 326 123 245 q 108 197 90 43 q 89 35 98 33 q 140 24 171 29 q 214 36 247 79 q 278 119 293 177 q 308 234 308 302 z"},"X":{"x_min":0,"x_max":667,"ha":667,"o":"m 668 634 q 668 609 634 609 q 609 609 596 614 q 583 619 573 615 q 542 603 506 564 q 461 516 379 390 q 373 381 375 376 q 467 116 520 58 q 533 44 551 54 q 577 68 599 119 q 601 124 607 121 q 612 119 621 113 q 623 110 621 107 q 592 41 543 7 q 524 -6 505 -6 q 484 -6 466 9 q 436 34 404 110 q 391 143 336 297 q 332 308 325 297 q 250 180 247 174 q 188 84 165 60 q 103 -4 44 -4 q 10 -4 -13 10 q -33 23 -33 40 q -33 49 -22 57 q -11 64 1 64 q 12 64 50 41 q 57 37 72 40 q 121 50 171 114 q 192 141 245 221 q 301 306 314 332 q 318 340 316 346 q 233 563 161 598 q 142 607 128 600 q 100 586 89 547 q 87 542 83 543 q 81 543 72 548 q 68 551 69 555 q 80 611 144 652 q 166 666 183 666 q 199 666 214 656 q 259 625 287 582 q 317 535 359 425 q 364 412 371 423 q 411 483 451 544 q 490 599 532 633 q 572 666 626 666 q 668 666 668 634 z"},"*":{"x_min":0,"x_max":414,"ha":414,"o":"m 435 539 q 435 537 426 499 q 422 483 417 460 q 415 455 405 455 q 403 455 371 460 q 282 474 270 474 q 284 447 309 399 q 324 369 344 351 q 351 347 358 339 q 358 337 353 333 q 351 333 336 330 q 322 327 316 326 q 286 323 279 322 q 272 322 269 331 q 263 347 258 363 q 250 403 236 461 q 208 430 178 396 q 173 392 159 372 q 145 352 145 347 q 145 335 140 330 q 136 326 133 331 q 125 342 112 362 q 105 380 94 397 q 91 401 98 409 q 99 410 126 429 q 160 449 204 479 q 172 476 125 472 q 91 471 69 457 q 59 450 53 451 q 48 451 48 457 q 48 459 52 473 q 55 487 56 493 q 56 494 67 530 q 68 535 77 535 q 89 535 113 532 q 153 525 214 516 q 204 546 176 597 q 163 622 139 641 q 130 645 127 652 q 125 657 130 659 q 144 660 168 663 q 203 670 206 670 q 211 671 213 661 q 213 660 218 646 q 223 632 224 629 q 234 588 251 525 q 271 547 307 588 q 330 617 337 645 q 340 659 348 662 q 356 649 370 630 q 375 619 391 595 q 391 589 385 583 q 374 575 358 561 q 351 557 328 543 q 301 526 292 516 q 318 517 358 519 q 402 523 415 532 q 428 541 435 539 z"},"Y":{"x_min":0,"x_max":575,"ha":575,"o":"m 600 658 q 600 656 599 649 q 598 642 598 640 q 598 636 595 636 l 565 636 q 555 636 538 614 q 532 606 442 473 q 411 427 349 334 q 343 325 343 318 q 342 314 332 220 q 321 126 320 117 q 316 86 316 65 q 316 26 329 26 l 409 26 q 412 26 413 25 q 414 24 414 20 q 414 19 413 12 q 412 5 412 4 q 412 0 408 0 l 173 0 q 166 0 166 6 q 167 9 168 19 q 168 26 174 26 l 235 26 q 243 26 245 38 q 245 26 271 299 q 272 311 267 320 q 207 434 188 466 q 135 559 90 615 q 73 636 50 636 l 32 636 q 28 636 27 638 q 26 639 26 641 q 26 646 27 655 q 26 662 32 662 l 220 662 q 228 662 228 656 q 228 654 228 649 q 228 644 227 641 q 227 636 223 636 l 193 636 q 180 636 180 626 q 179 619 185 606 q 189 597 253 486 q 281 436 321 369 q 329 357 335 366 q 412 479 449 544 q 476 591 479 624 q 480 636 468 636 l 421 636 q 417 636 417 640 q 417 647 419 657 q 419 662 423 662 l 596 662 q 600 662 600 658 z"},"c":{"x_min":0,"x_max":350,"ha":350,"o":"m 339 407 q 339 395 329 386 q 319 377 305 377 q 276 377 251 404 q 244 411 236 411 q 198 411 157 373 q 96 316 96 175 q 96 120 118 87 q 141 52 180 52 q 239 52 292 95 q 295 98 299 94 q 301 91 304 87 q 306 83 303 80 q 271 44 224 21 q 175 -5 136 -5 q 91 -5 60 38 q 28 83 28 159 q 28 300 141 396 q 208 453 276 453 q 305 453 322 439 q 339 426 339 407 z"},"!":{"x_min":0,"x_max":251,"ha":251,"o":"m 188 601 q 188 583 179 478 q 172 403 146 286 q 125 187 112 152 q 105 139 101 139 q 88 139 91 157 q 91 159 93 175 q 105 219 113 292 q 120 365 120 460 q 120 492 115 587 q 113 634 112 629 q 114 642 125 642 q 135 642 147 635 q 159 628 177 618 q 188 610 188 601 z m 130 34 q 129 17 116 5 q 103 -8 87 -8 q 72 -8 61 5 q 51 17 52 34 q 53 51 66 64 q 80 77 95 77 q 111 77 121 64 q 131 51 130 34 z"},"/":{"x_min":0,"x_max":281,"ha":281,"o":"m 309 716 q 310 714 304 698 q 288 657 155 334 q 22 11 4 -31 q 0 -42 -7 -48 q -14 -48 -19 -46 q -25 -40 -25 -39 q -27 -36 -21 -21 q 118 315 280 708 q 285 718 291 725 q 295 728 303 723 q 309 719 309 716 z"},"[":{"x_min":0,"x_max":285,"ha":285,"o":"m 360 721 q 358 713 358 705 q 358 699 352 699 l 240 699 q 225 699 212 701 q 208 702 206 699 q 204 696 205 691 q 205 672 204 658 q 187 496 168 317 q 160 232 118 -164 q 115 -184 110 -217 q 109 -225 111 -228 q 112 -230 117 -230 q 130 -228 138 -228 l 255 -228 q 259 -228 259 -232 q 259 -242 257 -248 q 257 -254 253 -254 l 51 -254 q 38 -254 40 -240 q 68 27 98 315 q 110 444 140 714 q 141 725 149 725 l 354 725 q 360 725 360 721 z"},"6":{"x_min":0,"x_max":458,"ha":458,"o":"m 428 645 q 427 636 409 636 q 302 635 221 562 q 155 503 120 414 q 114 398 122 398 q 125 398 129 401 q 191 445 260 445 q 335 445 374 378 q 404 327 404 254 q 404 141 354 71 q 297 -8 190 -8 q 96 -8 57 83 q 32 141 32 206 q 32 317 77 421 q 124 527 202 591 q 288 661 389 661 q 430 661 428 645 z m 350 210 q 350 300 311 351 q 278 394 225 394 q 158 394 121 370 q 99 355 96 341 q 86 293 85 267 q 81 163 112 104 q 132 66 163 44 q 193 23 222 23 q 323 23 345 146 q 350 176 350 210 z"},"r":{"x_min":0,"x_max":352,"ha":352,"o":"m 362 426 q 362 412 349 399 q 335 385 316 385 q 293 385 261 391 q 253 393 248 388 q 216 361 184 306 q 140 230 126 156 q 118 115 105 10 q 104 0 94 0 l 49 0 q 40 0 41 9 q 52 70 75 211 q 91 326 91 384 q 91 393 86 392 q 65 384 33 358 q 29 354 27 357 q 24 359 20 364 q 18 367 21 370 q 65 416 122 444 q 142 454 150 454 q 157 454 157 445 q 157 432 156 420 q 148 334 140 277 q 138 264 139 263 q 142 265 146 275 q 172 335 225 396 q 277 455 323 455 q 362 455 362 426 z"},"2":{"x_min":0,"x_max":411,"ha":411,"o":"m 231 202 q 161 125 89 68 q 83 63 84 57 q 85 51 94 51 l 201 51 q 298 51 346 63 q 358 66 360 66 q 366 66 366 60 q 366 55 359 44 q 350 27 339 6 q 333 0 331 0 l 2 0 q -5 0 -3 15 q -1 25 14 36 q 134 119 210 217 q 303 337 316 475 q 317 485 317 495 q 317 549 290 581 q 262 613 219 613 q 149 613 99 581 q 76 566 62 547 q 57 540 53 541 q 41 545 50 562 q 75 605 120 631 q 175 662 242 662 q 308 662 344 616 q 376 575 376 513 q 376 438 330 346 q 289 266 231 202 z"},"{":{"x_min":0,"x_max":280,"ha":280,"o":"m 370 721 q 368 713 368 705 q 368 700 363 699 l 305 699 q 254 699 219 639 q 187 585 179 507 q 176 480 176 456 q 176 433 179 398 q 183 363 183 347 q 183 332 181 317 q 175 267 107 247 q 125 234 143 222 q 169 199 166 169 q 163 142 145 78 q 127 14 122 -36 q 120 -60 120 -82 q 120 -228 208 -228 l 266 -228 q 269 -229 269 -234 q 269 -242 267 -250 q 267 -254 262 -254 l 177 -254 q 116 -254 85 -207 q 57 -166 57 -97 q 57 -80 59 -61 q 64 -9 87 57 q 109 124 114 171 q 117 195 96 214 q 77 232 57 232 q 40 232 41 248 q 42 264 61 264 q 83 264 103 277 q 126 292 129 315 q 131 336 131 354 q 131 380 125 420 q 120 460 120 487 q 120 508 122 532 q 130 609 173 666 q 219 725 280 725 l 365 725 q 370 725 370 721 z"},"9":{"x_min":0,"x_max":437,"ha":437,"o":"m 410 454 q 410 283 319 146 q 215 -8 53 -8 q 12 -8 14 8 q 15 19 49 19 q 153 19 235 102 q 289 157 322 239 q 329 255 320 255 q 317 255 313 252 q 278 227 253 218 q 225 208 183 208 q 116 208 77 275 q 50 321 50 399 q 50 511 95 580 q 147 661 252 661 q 332 661 375 595 q 410 539 410 454 z m 356 436 q 356 512 334 562 q 305 630 239 630 q 179 630 143 588 q 99 537 99 443 q 99 356 126 310 q 157 256 231 256 q 278 256 324 283 q 338 292 345 313 q 356 349 356 436 z"}," ":{"x_min":0,"x_max":163,"ha":163,"o":""},"I":{"x_min":0,"x_max":320,"ha":320,"o":"m 290 658 q 289 654 289 640 q 288 636 283 636 l 234 636 q 225 636 224 629 q 204 456 192 323 q 172 92 172 84 q 173 50 175 42 q 178 26 190 26 l 252 26 q 256 26 256 22 q 256 21 255 13 q 255 5 255 4 q 254 0 251 0 l 25 0 q 19 0 20 5 q 20 8 21 13 q 21 18 21 20 q 21 24 22 25 q 24 26 26 26 l 85 26 q 93 26 94 40 q 121 286 148 544 q 151 580 151 599 q 150 636 139 636 l 71 636 q 64 636 65 641 q 65 643 65 650 q 66 657 66 658 q 66 662 71 662 l 286 662 q 290 662 290 658 z"},"H":{"x_min":0,"x_max":650,"ha":650,"o":"m 630 655 l 629 642 q 628 636 622 636 l 591 636 q 577 636 575 634 q 572 632 570 618 q 555 496 537 354 q 520 228 510 125 q 505 74 505 63 q 505 26 517 26 l 578 26 q 583 26 583 20 l 582 6 q 582 0 577 0 l 381 0 q 375 0 376 5 l 378 21 q 379 26 385 26 l 415 26 q 424 26 427 31 q 429 36 433 62 q 449 190 467 331 q 468 340 460 340 l 192 340 q 183 340 181 329 q 173 284 159 135 q 148 26 167 26 l 226 26 q 230 26 230 20 l 229 5 q 229 0 224 0 l 21 0 q 16 0 16 5 l 17 20 q 18 26 24 26 l 62 26 q 74 26 77 31 q 80 36 83 62 q 97 185 114 333 q 125 428 138 537 q 150 636 133 636 l 72 636 q 66 636 67 641 l 69 657 q 70 662 75 662 l 284 662 q 290 662 289 655 l 288 641 q 288 636 281 636 l 235 636 q 220 636 218 623 q 189 391 189 388 q 188 377 195 377 l 463 377 q 471 377 472 386 q 485 503 491 545 q 491 543 493 563 q 495 583 495 598 q 495 636 483 636 l 431 636 q 426 636 427 642 l 429 657 q 430 662 436 662 l 625 662 q 630 662 630 655 z"},"4":{"x_min":0,"x_max":434,"ha":434,"o":"m 420 275 q 420 272 415 260 q 408 248 391 227 q 388 221 383 221 q 356 224 325 224 q 318 224 317 216 q 317 165 303 29 q 301 13 295 10 q 289 4 270 -4 q 266 -5 254 -11 q 243 -17 242 -17 q 232 -17 234 -4 q 234 -11 262 213 q 262 223 252 223 l 22 223 q 8 223 8 233 q 10 243 14 248 q 35 269 175 447 q 255 549 355 672 q 364 681 370 681 q 376 681 375 669 q 375 665 351 478 q 326 286 326 284 q 325 277 327 274 q 328 271 331 272 q 335 272 374 276 q 412 280 415 280 q 421 280 420 275 z m 305 553 q 303 556 301 559 q 297 559 291 551 q 280 540 209 451 l 79 288 q 67 274 80 274 l 262 274 q 273 274 275 287 q 305 572 305 553 z"},"~":{"x_min":0,"x_max":291,"ha":291,"o":"m 292 250 q 293 243 284 232 q 250 191 193 191 q 164 191 135 208 q 86 237 65 237 q 52 237 36 224 q 31 218 21 209 q 17 207 11 224 q 9 229 19 242 q 51 283 110 283 q 134 283 166 266 q 221 237 237 237 q 253 237 266 250 q 271 256 282 265 q 287 267 292 250 z"},"D":{"x_min":0,"x_max":673,"ha":673,"o":"m 638 367 q 638 266 589 178 q 542 93 461 43 q 408 10 343 0 q 306 -5 229 -5 q 194 -5 140 -2 q 85 0 48 0 l 9 0 q 4 0 4 5 q 4 10 5 21 q 6 26 12 26 l 49 26 q 73 26 77 58 q 78 65 90 178 q 103 291 104 302 q 118 411 134 537 q 138 573 138 595 q 138 636 125 636 l 59 636 q 54 636 55 641 q 55 649 57 657 q 57 662 63 662 l 343 662 q 493 662 571 576 q 638 502 638 367 z m 562 378 q 562 494 499 556 q 458 596 407 613 q 352 631 262 631 q 228 631 222 629 q 215 627 214 626 q 213 624 212 617 q 197 502 179 360 q 173 303 155 164 q 147 106 147 78 q 147 45 159 39 q 183 26 295 26 q 375 26 451 91 q 562 187 562 378 z"},"^":{"x_min":0,"x_max":380,"ha":380,"o":"m 370 505 q 369 501 363 491 q 358 488 355 487 q 352 491 345 499 q 305 542 235 629 l 232 637 l 227 629 q 203 604 156 564 q 97 515 85 504 q 80 499 70 492 q 68 493 62 496 q 59 501 59 510 q 59 515 70 528 q 125 599 214 709 q 218 714 226 722 q 228 722 234 717 q 235 715 238 712 q 240 713 244 717 q 249 722 252 722 q 255 720 262 709 q 300 638 365 522 q 371 507 370 505 z"},"0":{"x_min":0,"x_max":451,"ha":451,"o":"m 426 340 q 413 127 320 40 q 272 -5 211 -5 q 124 -5 81 53 q 34 117 34 250 q 34 274 36 302 q 49 524 144 613 q 196 662 267 662 q 346 662 386 597 q 428 530 428 396 q 428 370 426 340 z m 373 325 q 375 351 375 376 q 375 486 344 550 q 319 603 299 619 q 280 633 238 633 q 191 633 157 587 q 99 509 87 314 q 85 292 85 271 q 85 163 120 95 q 158 21 220 21 q 267 21 304 58 q 360 114 373 325 z"},"F":{"x_min":0,"x_max":519,"ha":519,"o":"m 517 652 q 510 618 503 590 q 501 583 497 583 q 493 583 490 586 q 490 586 475 597 q 456 611 414 619 q 364 628 233 630 q 226 630 224 624 q 208 509 191 381 q 189 371 198 371 l 403 371 q 412 371 418 382 q 424 399 434 424 q 438 433 441 433 l 450 433 q 456 433 455 425 q 451 401 443 350 q 440 316 435 266 q 433 255 429 255 l 419 255 q 414 255 414 262 q 414 295 410 322 q 409 332 395 332 q 391 332 293 334 q 195 336 192 336 q 185 336 184 327 q 184 314 164 146 q 158 92 158 64 q 158 26 171 26 l 240 26 q 245 26 244 20 l 243 5 q 243 0 238 0 l 24 0 q 19 0 20 6 q 20 11 22 21 q 22 26 26 26 l 59 26 q 84 26 86 46 q 102 187 118 337 q 129 432 142 537 q 154 636 135 636 l 73 636 q 68 636 69 641 q 69 647 71 657 q 71 662 77 662 l 503 663 q 519 663 517 652 z"},"`":{"x_min":0,"x_max":272,"ha":272,"o":"m 250 488 q 242 483 228 491 q 180 519 97 573 q 84 581 80 588 q 79 589 81 591 q 82 593 84 593 q 124 593 145 596 q 151 597 157 591 q 188 562 245 507 q 259 494 250 488 z"},"k":{"x_min":0,"x_max":432,"ha":432,"o":"m 411 88 q 378 32 322 -4 q 309 -13 301 -2 q 271 37 248 85 q 215 152 203 190 q 199 202 207 207 q 237 229 293 273 q 332 308 332 360 q 332 393 305 393 q 263 393 215 333 q 150 252 131 165 q 123 129 119 83 q 112 11 112 9 q 111 0 104 0 l 56 0 q 48 0 49 8 q 54 44 75 213 l 102 437 q 112 523 118 589 q 126 671 126 691 q 126 699 118 699 q 101 699 56 686 q 52 685 49 690 q 47 693 46 699 q 44 704 50 707 q 70 716 127 730 q 183 744 196 744 q 208 744 206 733 q 193 655 170 471 q 154 343 139 262 q 138 257 139 255 q 139 253 141 254 q 142 255 144 259 q 188 344 236 389 q 300 449 346 449 q 369 449 383 432 q 398 415 398 387 q 398 356 381 331 q 374 320 340 285 q 325 270 261 225 q 256 222 258 215 q 271 174 305 117 q 319 92 342 59 q 347 54 352 57 q 374 69 397 99 q 398 103 401 100 q 404 98 411 92 q 413 90 411 88 z"},"u":{"x_min":0,"x_max":442,"ha":442,"o":"m 420 52 q 422 49 418 45 q 398 28 358 12 q 313 -6 284 -6 q 273 -6 273 4 q 273 20 278 65 q 285 124 294 189 q 295 196 294 199 q 294 201 292 199 q 291 197 288 191 q 258 118 205 56 q 151 -6 113 -6 q 57 -6 57 91 q 57 140 80 287 q 91 357 91 406 q 91 415 85 415 q 57 415 23 390 q 20 387 18 390 q 17 392 13 398 q 11 401 14 403 q 37 424 79 440 q 120 455 149 455 q 159 455 159 440 q 159 409 141 304 q 119 176 119 106 q 119 51 145 51 q 186 51 245 146 q 293 223 306 293 q 315 341 327 436 q 328 444 336 444 l 385 444 q 392 444 391 437 q 378 369 354 220 q 341 124 341 40 q 341 33 347 33 q 369 33 409 59 q 413 62 415 59 q 416 58 417 56 q 419 54 420 52 z"},"]":{"x_min":0,"x_max":285,"ha":285,"o":"m 228 714 q 198 444 186 315 q 156 44 125 -238 q 124 -252 111 -252 l -89 -252 q -94 -252 -94 -246 q -92 -240 -92 -230 q -92 -226 -85 -226 l 33 -226 q 35 -226 51 -228 q 60 -229 61 -215 q 62 -198 65 -162 q 91 69 118 317 q 133 486 154 658 q 156 671 159 691 q 160 697 158 699 q 157 702 153 701 q 141 699 125 699 l 14 699 q 9 699 9 705 q 9 713 11 721 q 11 725 18 725 l 221 725 q 229 725 228 714 z"},"U":{"x_min":0,"x_max":716,"ha":716,"o":"m 703 655 q 703 654 703 650 q 702 646 702 643 q 701 636 697 636 l 632 636 q 626 636 624 628 q 618 607 587 308 q 574 179 574 84 q 574 62 575 51 q 575 43 582 45 q 617 52 659 73 q 664 76 667 71 q 672 63 673 58 q 674 53 670 50 q 650 36 603 15 q 551 -8 517 -16 q 507 -18 506 -8 q 497 53 503 124 q 504 133 500 134 q 497 135 493 129 q 451 62 385 22 q 323 -14 263 -14 q 204 -14 160 10 q 112 36 96 81 q 79 128 87 223 q 91 273 122 522 q 128 576 128 600 q 128 636 117 636 l 59 636 q 54 636 54 641 q 55 646 56 656 q 57 662 62 662 l 275 662 q 282 662 280 656 q 280 655 279 651 q 279 646 279 643 q 278 636 274 636 l 220 636 q 214 636 212 628 q 192 478 169 308 q 156 216 158 166 q 159 125 165 107 q 173 78 199 60 q 224 41 288 41 q 360 41 427 98 q 492 153 508 259 q 516 307 536 522 q 541 576 541 596 q 541 636 529 636 l 470 636 q 465 636 465 641 q 465 646 467 656 q 468 662 473 662 l 698 662 q 705 662 703 655 z"},"o":{"x_min":0,"x_max":425,"ha":425,"o":"m 391 283 q 391 215 356 149 q 325 89 274 47 q 210 -6 154 -6 q 90 -6 53 44 q 22 86 22 160 q 22 279 121 381 q 193 455 266 455 q 328 455 359 411 q 391 367 391 283 z m 319 273 q 319 355 295 387 q 272 417 234 417 q 196 417 163 387 q 128 355 108 292 q 90 235 90 173 q 90 102 111 69 q 135 31 182 31 q 223 31 254 61 q 319 124 319 273 z"},"N":{"x_min":0,"x_max":648,"ha":648,"o":"m 629 658 q 629 650 627 642 q 627 636 622 636 l 598 636 q 587 636 586 623 q 570 497 551 352 q 528 188 504 5 q 501 -18 495 -18 q 489 -18 485 -12 q 464 22 294 313 q 216 447 176 505 q 173 509 170 508 q 167 507 166 501 q 146 359 118 156 q 113 111 113 79 q 113 26 128 26 l 191 26 q 196 26 195 22 q 195 21 194 13 q 193 5 193 4 q 193 0 188 0 l 26 0 q 21 0 21 3 q 21 12 23 21 q 24 26 30 26 l 62 26 q 70 26 70 33 q 70 33 79 105 q 107 292 141 538 q 142 551 138 561 q 118 606 87 631 q 81 636 70 636 l 29 636 q 25 636 25 641 q 27 647 27 657 q 28 662 33 662 l 163 662 q 167 662 173 654 q 196 619 315 414 q 394 278 484 133 q 486 131 487 131 q 490 131 493 145 q 495 154 516 317 q 536 480 537 494 q 546 636 520 636 l 458 636 q 452 636 452 641 q 454 649 454 657 q 455 662 460 662 l 624 662 q 630 662 629 658 z"},"+":{"x_min":0,"x_max":419,"ha":419,"o":"m 345 276 q 350 276 312 276 q 275 277 238 277 l 238 156 q 238 146 212 146 q 185 146 185 153 q 186 218 186 277 q 152 277 111 278 q 69 279 73 279 q 63 279 63 297 q 63 310 68 323 q 72 337 76 337 q 135 336 186 336 q 186 375 187 419 q 188 464 188 460 q 188 470 204 470 q 215 470 228 466 q 240 461 240 457 q 238 395 238 336 q 293 336 342 334 q 351 334 351 305 q 351 276 345 276 z"},"G":{"x_min":0,"x_max":644,"ha":644,"o":"m 624 301 l 623 287 q 623 282 616 282 l 588 282 q 568 282 565 267 q 559 240 555 170 q 552 120 554 93 q 555 79 546 76 q 496 59 448 29 q 387 -9 306 -9 q 195 -9 122 54 q 83 87 60 149 q 39 205 39 259 q 39 419 151 555 q 191 604 260 637 q 332 672 398 672 q 515 672 598 633 q 604 629 604 622 q 604 580 595 556 q 593 551 590 551 q 587 551 584 556 q 552 601 513 618 q 466 639 401 639 q 354 639 304 620 q 229 592 188 531 q 148 472 133 413 q 118 357 118 273 q 118 181 155 125 q 219 28 324 28 q 371 28 417 47 q 462 65 472 85 q 482 104 487 206 q 491 282 475 282 l 388 282 q 382 282 383 287 l 385 303 q 386 308 391 308 l 619 308 q 625 308 624 301 z"},"q":{"x_min":0,"x_max":411,"ha":411,"o":"m 399 481 q 386 436 365 333 q 347 201 327 13 q 322 -41 313 -138 q 310 -168 311 -193 q 311 -212 313 -223 q 313 -229 321 -231 q 335 -233 391 -233 q 399 -233 399 -239 l 399 -248 q 399 -253 393 -255 q 335 -266 245 -266 q 233 -266 235 -254 l 238 -228 l 262 -21 q 266 11 286 147 q 287 153 287 155 q 286 157 284 155 q 283 152 280 146 q 260 97 223 56 q 166 -6 119 -6 q 33 -6 33 158 q 33 283 120 370 q 195 445 277 445 q 311 445 333 438 q 342 435 345 442 q 353 463 355 478 q 356 488 364 488 l 396 488 q 401 488 399 481 z m 313 407 q 313 417 296 420 q 287 422 276 422 q 229 422 173 369 q 100 300 100 169 q 100 52 160 52 q 184 52 213 82 q 242 112 263 159 q 289 217 303 321 q 308 354 313 407 z"},"d":{"x_min":0,"x_max":430,"ha":430,"o":"m 418 732 q 402 634 380 471 q 361 332 348 220 q 334 98 334 49 q 334 41 341 41 q 360 41 400 67 q 404 69 406 67 q 409 64 411 60 q 413 58 409 53 q 377 17 288 -5 q 271 -9 271 -2 q 271 4 273 53 q 275 95 283 149 q 284 155 284 158 q 283 161 282 159 q 280 157 278 151 q 262 109 215 54 q 164 -6 120 -6 q 80 -6 53 32 q 22 74 22 150 q 22 281 110 365 q 188 439 269 439 q 292 439 301 436 q 312 433 313 440 q 321 490 331 589 q 338 661 338 691 q 338 699 330 699 q 305 699 258 684 q 253 683 252 687 q 250 691 248 698 q 247 702 253 704 q 273 713 330 728 q 389 744 408 744 q 420 744 418 732 z m 307 401 q 307 407 299 410 q 292 413 270 413 q 188 413 134 324 q 89 248 89 161 q 89 109 107 80 q 124 53 149 53 q 175 53 206 81 q 238 110 259 157 q 279 201 299 321 q 304 352 307 401 z"},"1":{"x_min":0,"x_max":331,"ha":331,"o":"m 263 23 q 263 21 263 14 q 262 8 262 5 q 261 0 257 0 l 25 0 q 21 0 21 6 q 21 8 21 14 q 22 20 22 22 q 24 29 35 29 q 47 29 73 28 q 100 28 106 28 q 116 28 119 54 q 143 270 169 498 q 178 572 177 588 q 174 624 149 624 q 141 624 123 623 q 106 621 100 621 q 95 621 96 627 q 96 629 97 634 q 97 639 97 642 q 98 648 104 648 l 150 648 q 198 648 222 653 q 246 658 243 658 q 251 658 249 646 q 245 619 212 347 q 180 83 177 53 q 174 28 193 28 q 204 28 225 28 q 247 29 252 29 q 263 29 263 23 z"},"5":{"x_min":0,"x_max":450,"ha":450,"o":"m 423 646 q 421 617 383 582 q 378 578 372 578 q 362 577 344 577 q 283 577 222 593 q 180 604 166 613 q 160 617 157 610 q 155 607 117 474 q 114 465 115 464 q 116 461 125 463 q 147 469 195 469 q 284 469 339 402 q 382 349 382 273 q 382 255 380 234 q 372 149 307 72 q 241 -7 132 -7 q 50 -7 10 26 q 1 33 1 39 q 4 54 10 54 q 14 54 22 47 q 48 26 116 26 q 205 26 259 83 q 311 137 319 225 q 320 235 320 245 q 320 329 255 380 q 211 415 140 415 q 136 415 116 414 q 97 413 94 413 q 81 413 83 426 q 83 429 113 536 q 128 592 144 648 q 148 660 162 659 q 168 658 263 652 q 361 645 378 645 q 397 645 406 648 q 421 653 419 653 q 423 653 423 646 z"}}}
